<svg id="svg" version="1.1" xmlns="http://www.w3.org/2000/svg" xmlns:xlink="http://www.w3.org/1999/xlink" width="400" height="71.83673469387755" viewBox="0, 0, 400,71.83673469387755"><g id="svgg"><path id="path0" d="M154.417 5.773 C 153.526 5.985,153.112 6.257,152.896 6.773 C 152.554 7.593,152.554 66.740,152.896 67.560 C 153.349 68.643,151.945 68.583,176.917 68.583 C 201.735 68.583,200.148 68.651,200.597 67.575 C 200.961 66.704,200.940 57.190,200.572 56.479 C 200.047 55.462,200.731 55.500,182.864 55.500 C 165.807 55.500,165.702 55.496,165.288 54.774 C 165.130 54.498,165.064 49.033,165.000 30.743 C 164.908 4.716,164.986 6.551,163.958 5.964 C 163.586 5.752,155.211 5.584,154.417 5.773 M245.250 5.837 C 240.387 6.670,235.851 11.871,235.151 17.417 C 235.059 18.150,234.837 19.227,234.658 19.809 C 234.411 20.614,234.333 21.359,234.333 22.913 C 234.333 25.909,234.056 26.648,232.829 26.918 C 230.427 27.445,231.214 29.886,234.309 31.509 C 235.164 31.958,235.557 32.314,236.351 33.357 C 238.305 35.923,238.798 35.870,242.000 32.753 C 243.054 31.727,244.463 30.529,245.131 30.091 C 248.076 28.161,247.955 27.212,244.734 26.996 C 241.644 26.789,241.667 26.829,241.667 21.502 L 241.667 17.661 242.268 15.789 C 242.961 13.628,243.841 11.846,244.582 11.102 C 246.233 9.445,248.599 7.829,249.957 7.433 C 251.890 6.869,252.383 6.319,251.219 6.024 C 250.314 5.795,246.240 5.668,245.250 5.837 M26.789 6.208 C 26.224 6.638,26.167 7.296,26.170 13.303 C 26.174 18.761,26.200 19.305,26.486 19.917 C 26.700 20.374,31.014 24.792,40.195 33.958 L 53.592 47.333 54.277 47.333 C 55.209 47.333,56.313 46.568,57.521 45.083 C 58.043 44.442,59.846 42.582,61.527 40.951 C 63.208 39.319,65.379 37.201,66.350 36.242 C 68.364 34.257,68.992 34.021,69.846 34.930 L 70.250 35.360 70.333 51.396 C 70.425 69.121,70.361 68.148,71.460 68.456 C 72.483 68.742,80.210 68.605,80.785 68.291 C 81.720 67.780,81.685 69.072,81.632 36.777 L 81.583 6.804 81.116 6.402 C 80.410 5.795,80.030 5.886,79.174 6.868 C 77.894 8.335,77.107 9.070,76.080 9.757 C 75.537 10.120,74.849 10.754,74.550 11.167 C 73.189 13.044,72.778 13.506,71.783 14.269 C 71.199 14.717,70.352 15.559,69.902 16.140 C 69.452 16.722,68.538 17.647,67.871 18.196 C 67.204 18.745,66.256 19.695,65.764 20.306 C 64.807 21.494,63.947 22.342,62.535 23.491 C 62.051 23.885,61.214 24.743,60.676 25.396 C 60.138 26.049,59.218 26.954,58.632 27.408 C 58.046 27.862,57.195 28.713,56.741 29.299 C 54.750 31.873,53.467 32.154,52.258 30.281 C 51.595 29.255,50.836 28.502,49.736 27.780 C 49.292 27.488,48.701 26.921,48.423 26.519 C 47.735 25.525,46.410 24.192,45.491 23.568 C 45.037 23.260,44.347 22.505,43.780 21.695 C 42.892 20.428,42.171 19.752,40.507 18.626 C 40.136 18.374,39.626 17.855,39.374 17.471 C 38.773 16.555,37.440 15.212,36.491 14.568 C 36.040 14.262,35.349 13.507,34.793 12.713 C 33.917 11.463,33.295 10.878,31.547 9.662 C 31.158 9.391,30.498 8.647,30.069 7.995 C 28.931 6.268,27.638 5.564,26.789 6.208 M4.570 6.679 C 3.301 7.048,3.422 3.936,3.374 37.356 C 3.327 69.772,3.275 67.836,4.210 68.370 C 4.759 68.684,14.920 68.676,15.472 68.362 C 16.376 67.846,16.333 69.386,16.333 37.547 C 16.333 4.548,16.431 7.149,15.167 6.718 C 14.468 6.480,5.371 6.446,4.570 6.679 M93.552 6.681 C 92.341 7.037,92.333 7.079,92.333 13.083 C 92.333 19.141,92.332 19.132,93.633 19.493 C 94.036 19.605,99.931 19.665,110.673 19.666 L 127.096 19.667 127.830 20.042 C 130.647 21.481,130.604 26.746,127.763 28.302 C 127.294 28.559,125.779 28.591,110.213 28.667 L 93.176 28.750 92.796 29.130 L 92.417 29.509 92.373 48.515 L 92.329 67.521 92.803 67.995 C 93.443 68.635,94.194 68.711,99.179 68.639 C 102.156 68.596,103.355 68.522,103.639 68.360 C 104.504 67.871,104.500 67.926,104.500 55.167 C 104.500 42.408,104.496 42.464,105.361 41.972 C 105.669 41.796,107.996 41.733,116.595 41.667 L 127.440 41.583 129.553 40.548 C 130.715 39.978,132.248 39.140,132.958 38.685 C 133.669 38.230,134.669 37.701,135.181 37.510 C 135.693 37.319,136.266 36.995,136.455 36.790 C 137.245 35.932,140.445 30.959,141.200 29.417 L 142.015 27.750 141.966 23.583 L 141.917 19.417 141.232 18.417 C 140.855 17.867,140.386 17.101,140.190 16.714 C 139.993 16.328,139.418 15.547,138.910 14.978 C 138.403 14.410,137.683 13.359,137.311 12.644 C 136.456 11.001,135.708 10.317,134.231 9.831 C 133.600 9.624,132.717 9.270,132.270 9.047 C 131.823 8.823,130.173 8.179,128.604 7.617 L 125.750 6.595 109.917 6.560 C 100.448 6.539,93.870 6.588,93.552 6.681 M276.403 6.677 C 275.242 7.020,275.255 6.951,275.202 12.823 C 275.150 18.455,275.189 18.788,275.943 19.283 C 276.374 19.565,277.312 19.588,291.409 19.667 L 306.417 19.750 308.167 20.644 C 309.129 21.136,310.217 21.796,310.583 22.110 C 310.950 22.424,311.850 23.080,312.583 23.568 C 314.419 24.788,315.522 25.996,315.947 27.251 C 316.133 27.800,316.524 28.625,316.816 29.083 C 317.308 29.857,317.717 31.030,318.673 34.417 C 319.475 37.260,319.476 37.863,318.678 40.750 C 317.851 43.740,317.308 45.309,316.849 46.032 C 316.583 46.451,316.201 47.244,316.001 47.794 C 315.516 49.125,314.915 49.814,313.519 50.644 C 312.679 51.143,312.088 51.669,311.387 52.542 C 310.517 53.625,310.246 53.836,308.764 54.583 L 307.112 55.417 297.975 55.464 C 288.084 55.515,288.142 55.519,287.630 54.623 C 287.464 54.334,287.398 51.598,287.333 42.409 C 287.241 29.345,287.285 29.846,286.206 29.544 C 285.608 29.377,276.887 29.379,276.286 29.546 C 275.097 29.878,275.168 28.642,275.168 49.000 C 275.168 69.358,275.097 68.122,276.286 68.454 C 277.354 68.752,302.526 68.605,303.333 68.296 C 303.746 68.138,304.635 67.894,305.309 67.753 C 307.073 67.385,309.148 66.623,311.250 65.572 C 312.479 64.957,313.434 64.600,314.147 64.487 C 315.461 64.279,315.993 64.012,316.869 63.116 C 317.245 62.731,318.099 61.967,318.768 61.417 C 319.436 60.867,320.502 59.989,321.138 59.467 C 322.543 58.313,322.395 58.506,325.656 53.567 C 328.653 49.028,328.797 48.744,328.934 47.102 C 328.989 46.450,329.213 45.379,329.433 44.722 C 329.653 44.065,329.834 43.352,329.835 43.139 C 329.837 42.925,330.024 42.166,330.252 41.452 C 330.620 40.301,330.667 39.863,330.667 37.583 C 330.667 35.304,330.620 34.866,330.252 33.715 C 330.024 33.001,329.834 32.229,329.830 32.000 C 329.826 31.771,329.674 31.171,329.492 30.667 C 329.311 30.162,329.088 29.085,328.997 28.273 C 328.791 26.423,328.558 25.902,326.765 23.267 C 325.969 22.097,325.145 20.749,324.933 20.271 C 324.706 19.758,324.191 19.065,323.675 18.576 C 323.194 18.122,322.609 17.423,322.374 17.024 C 322.086 16.534,321.588 16.067,320.843 15.589 C 320.235 15.200,319.166 14.351,318.467 13.702 C 317.767 13.054,316.973 12.409,316.703 12.269 C 316.432 12.129,315.807 11.667,315.313 11.243 C 314.182 10.271,313.717 10.029,312.579 9.818 C 312.077 9.726,310.223 9.165,308.458 8.573 C 306.370 7.872,304.785 7.442,303.917 7.341 C 303.183 7.256,302.246 7.051,301.833 6.885 C 300.992 6.547,277.495 6.354,276.403 6.677 M343.333 6.717 C 342.225 7.097,342.167 7.410,342.167 13.083 C 342.167 18.822,342.216 19.076,343.395 19.460 C 344.378 19.782,394.394 19.681,395.023 19.357 C 395.887 18.912,395.917 18.702,395.917 13.083 C 395.917 7.465,395.887 7.255,395.023 6.810 C 394.412 6.495,344.244 6.404,343.333 6.717 M201.240 17.908 C 200.988 18.294,200.944 18.793,200.932 21.470 L 200.917 24.583 201.711 26.228 C 203.736 30.424,205.843 32.335,209.897 33.654 C 211.067 34.034,212.312 34.333,212.728 34.333 C 213.136 34.333,213.946 34.491,214.527 34.683 C 215.322 34.946,216.242 35.062,218.250 35.154 C 221.908 35.321,221.997 35.387,222.004 37.950 C 222.015 42.032,223.524 42.094,227.583 38.179 C 228.408 37.384,229.652 36.349,230.347 35.881 C 232.730 34.272,232.862 33.424,231.068 31.223 C 230.664 30.726,230.333 30.245,230.333 30.154 C 230.333 30.062,229.371 28.996,228.196 27.785 C 227.020 26.574,225.656 24.995,225.164 24.276 C 223.138 21.313,222.250 21.497,222.020 24.926 C 221.822 27.880,221.729 27.923,215.806 27.795 L 212.417 27.721 210.417 27.017 C 208.043 26.180,206.398 25.254,205.740 24.383 C 205.477 24.035,204.867 23.282,204.385 22.711 C 203.372 21.511,202.812 20.477,202.414 19.076 C 202.018 17.682,201.637 17.303,201.240 17.908 M343.569 29.490 C 342.069 29.849,342.167 28.494,342.167 49.000 C 342.167 68.432,342.141 67.856,343.028 68.362 C 343.347 68.543,348.019 68.583,369.029 68.583 L 394.642 68.583 395.113 68.234 C 395.954 67.610,396.025 67.064,395.968 61.667 C 395.910 56.135,395.882 56.001,394.691 55.671 C 394.297 55.561,387.202 55.501,374.500 55.498 C 353.123 55.495,354.321 55.553,353.792 54.498 C 353.396 53.708,353.348 43.687,353.736 42.758 C 354.180 41.695,353.136 41.758,371.972 41.667 L 389.194 41.583 389.680 41.039 L 390.167 40.495 390.167 35.507 C 390.167 29.841,390.162 29.821,388.750 29.495 C 387.957 29.312,344.334 29.308,343.569 29.490 M244.516 34.864 C 243.746 35.339,242.434 36.376,241.600 37.169 C 240.766 37.961,239.625 38.919,239.064 39.296 C 236.863 40.777,236.598 41.783,237.971 43.444 C 238.413 43.979,239.047 44.829,239.379 45.333 C 239.712 45.837,240.646 46.859,241.456 47.603 C 242.280 48.360,243.322 49.535,243.823 50.270 C 246.272 53.864,247.241 53.871,247.372 50.294 C 247.478 47.419,247.760 47.279,253.250 47.377 L 257.083 47.446 258.750 48.032 C 260.938 48.802,262.626 49.670,263.273 50.360 C 265.473 52.705,266.552 54.385,267.088 56.299 C 267.736 58.617,268.325 57.983,268.546 54.730 C 268.801 50.973,268.183 48.912,265.831 45.680 C 264.058 43.242,260.343 41.250,256.795 40.833 C 256.086 40.750,255.009 40.529,254.402 40.341 C 253.531 40.072,252.843 40.000,251.144 40.000 C 247.693 40.000,247.496 39.830,247.347 36.726 C 247.201 33.670,246.837 33.431,244.516 34.864 M27.407 38.070 C 26.958 38.398,26.806 66.808,27.249 67.665 C 27.712 68.560,27.855 68.583,32.917 68.583 C 39.932 68.583,39.166 69.851,39.162 58.250 C 39.159 47.419,39.329 48.254,36.780 46.586 C 36.045 46.105,35.557 45.614,35.062 44.859 C 34.146 43.458,33.316 42.622,31.971 41.747 C 31.105 41.183,30.679 40.752,30.054 39.806 C 28.947 38.131,28.091 37.570,27.407 38.070 M229.445 39.567 C 228.949 39.971,228.215 40.506,227.814 40.756 C 227.412 41.006,226.221 42.050,225.167 43.075 C 224.112 44.100,222.680 45.322,221.983 45.791 C 218.948 47.833,219.025 48.817,222.234 48.992 C 225.380 49.164,225.392 49.187,225.289 54.917 C 225.202 59.778,224.171 63.245,222.301 64.961 C 219.952 67.118,218.202 68.265,216.662 68.657 C 215.593 68.930,215.167 69.179,215.167 69.532 C 215.167 70.049,215.930 70.186,218.999 70.219 L 221.922 70.250 223.753 69.362 C 228.666 66.977,231.236 63.539,231.838 58.549 C 231.917 57.888,232.136 56.849,232.324 56.240 C 232.593 55.371,232.667 54.677,232.668 53.024 C 232.669 49.340,232.842 49.127,235.934 49.000 C 238.231 48.905,238.667 48.708,238.667 47.765 C 238.667 46.985,236.896 44.390,235.563 43.216 C 234.959 42.685,234.028 41.612,233.493 40.833 C 231.943 38.576,231.018 38.287,229.445 39.567 " stroke="none" fill="#fcfcfc" fill-rule="evenodd"></path><path id="path1" d="M0.000 35.917 L 0.000 71.833 200.000 71.833 L 400.000 71.833 400.000 35.917 L 400.000 0.000 200.000 0.000 L 0.000 0.000 0.000 35.917 M163.958 5.964 C 164.986 6.551,164.908 4.716,165.000 30.743 C 165.064 49.033,165.130 54.498,165.288 54.774 C 165.702 55.496,165.807 55.500,182.864 55.500 C 200.731 55.500,200.047 55.462,200.572 56.479 C 200.940 57.190,200.961 66.704,200.597 67.575 C 200.148 68.651,201.735 68.583,176.917 68.583 C 151.945 68.583,153.349 68.643,152.896 67.560 C 152.554 66.740,152.554 7.593,152.896 6.773 C 153.112 6.257,153.526 5.985,154.417 5.773 C 155.211 5.584,163.586 5.752,163.958 5.964 M251.219 6.024 C 252.383 6.319,251.890 6.869,249.957 7.433 C 248.599 7.829,246.233 9.445,244.582 11.102 C 243.841 11.846,242.961 13.628,242.268 15.789 L 241.667 17.661 241.667 21.502 C 241.667 26.829,241.644 26.789,244.734 26.996 C 247.955 27.212,248.076 28.161,245.131 30.091 C 244.463 30.529,243.054 31.727,242.000 32.753 C 238.798 35.870,238.305 35.923,236.351 33.357 C 235.557 32.314,235.164 31.958,234.309 31.509 C 231.214 29.886,230.427 27.445,232.829 26.918 C 234.056 26.648,234.333 25.909,234.333 22.913 C 234.333 21.359,234.411 20.614,234.658 19.809 C 234.837 19.227,235.059 18.150,235.151 17.417 C 236.162 9.402,243.634 4.105,251.219 6.024 M28.691 6.409 C 29.022 6.634,29.642 7.348,30.069 7.995 C 30.498 8.647,31.158 9.391,31.547 9.662 C 33.295 10.878,33.917 11.463,34.793 12.713 C 35.349 13.507,36.040 14.262,36.491 14.568 C 37.440 15.212,38.773 16.555,39.374 17.471 C 39.626 17.855,40.136 18.374,40.507 18.626 C 42.171 19.752,42.892 20.428,43.780 21.695 C 44.347 22.505,45.037 23.260,45.491 23.568 C 46.410 24.192,47.735 25.525,48.423 26.519 C 48.701 26.921,49.292 27.488,49.736 27.780 C 50.836 28.502,51.595 29.255,52.258 30.281 C 53.467 32.154,54.750 31.873,56.741 29.299 C 57.195 28.713,58.046 27.862,58.632 27.408 C 59.218 26.954,60.138 26.049,60.676 25.396 C 61.214 24.743,62.051 23.885,62.535 23.491 C 63.947 22.342,64.807 21.494,65.764 20.306 C 66.256 19.695,67.204 18.745,67.871 18.196 C 68.538 17.647,69.452 16.722,69.902 16.140 C 70.352 15.559,71.199 14.717,71.783 14.269 C 72.778 13.506,73.189 13.044,74.550 11.167 C 74.849 10.754,75.537 10.120,76.080 9.757 C 77.107 9.070,77.894 8.335,79.174 6.868 C 80.030 5.886,80.410 5.795,81.116 6.402 L 81.583 6.804 81.632 36.777 C 81.685 69.072,81.720 67.780,80.785 68.291 C 80.210 68.605,72.483 68.742,71.460 68.456 C 70.361 68.148,70.425 69.121,70.333 51.396 L 70.250 35.360 69.846 34.930 C 68.992 34.021,68.364 34.257,66.350 36.242 C 65.379 37.201,63.208 39.319,61.527 40.951 C 59.846 42.582,58.043 44.442,57.521 45.083 C 56.313 46.568,55.209 47.333,54.277 47.333 L 53.592 47.333 40.195 33.958 C 31.014 24.792,26.700 20.374,26.486 19.917 C 26.121 19.137,25.995 7.817,26.341 6.886 C 26.702 5.912,27.671 5.716,28.691 6.409 M15.167 6.718 C 16.431 7.149,16.333 4.548,16.333 37.547 C 16.333 69.386,16.376 67.846,15.472 68.362 C 14.920 68.676,4.759 68.684,4.210 68.370 C 3.275 67.836,3.327 69.772,3.374 37.356 C 3.422 3.936,3.301 7.048,4.570 6.679 C 5.371 6.446,14.468 6.480,15.167 6.718 M128.604 7.617 C 130.173 8.179,131.823 8.823,132.270 9.047 C 132.717 9.270,133.600 9.624,134.231 9.831 C 135.708 10.317,136.456 11.001,137.311 12.644 C 137.683 13.359,138.403 14.410,138.910 14.978 C 139.418 15.547,139.993 16.328,140.190 16.714 C 140.386 17.101,140.855 17.867,141.232 18.417 L 141.917 19.417 141.966 23.583 L 142.015 27.750 141.200 29.417 C 140.445 30.959,137.245 35.932,136.455 36.790 C 136.266 36.995,135.693 37.319,135.181 37.510 C 134.669 37.701,133.669 38.230,132.958 38.685 C 132.248 39.140,130.715 39.978,129.553 40.548 L 127.440 41.583 116.595 41.667 C 107.996 41.733,105.669 41.796,105.361 41.972 C 104.496 42.464,104.500 42.408,104.500 55.167 C 104.500 67.926,104.504 67.871,103.639 68.360 C 103.355 68.522,102.156 68.596,99.179 68.639 C 94.194 68.711,93.443 68.635,92.803 67.995 L 92.329 67.521 92.373 48.515 L 92.417 29.509 92.796 29.130 L 93.176 28.750 110.213 28.667 C 125.779 28.591,127.294 28.559,127.763 28.302 C 130.604 26.746,130.647 21.481,127.830 20.042 L 127.096 19.667 110.673 19.666 C 93.367 19.665,93.282 19.661,92.674 18.888 C 92.142 18.212,92.145 7.951,92.677 7.275 C 93.264 6.528,93.381 6.524,109.917 6.560 L 125.750 6.595 128.604 7.617 M301.833 6.885 C 302.246 7.051,303.183 7.256,303.917 7.341 C 304.785 7.442,306.370 7.872,308.458 8.573 C 310.223 9.165,312.077 9.726,312.579 9.818 C 313.717 10.029,314.182 10.271,315.313 11.243 C 315.807 11.667,316.432 12.129,316.703 12.269 C 316.973 12.409,317.767 13.054,318.467 13.702 C 319.166 14.351,320.235 15.200,320.843 15.589 C 321.588 16.067,322.086 16.534,322.374 17.024 C 322.609 17.423,323.194 18.122,323.675 18.576 C 324.191 19.065,324.706 19.758,324.933 20.271 C 325.145 20.749,325.969 22.097,326.765 23.267 C 328.558 25.902,328.791 26.423,328.997 28.273 C 329.088 29.085,329.311 30.162,329.492 30.667 C 329.674 31.171,329.826 31.771,329.830 32.000 C 329.834 32.229,330.024 33.001,330.252 33.715 C 330.620 34.866,330.667 35.304,330.667 37.583 C 330.667 39.863,330.620 40.301,330.252 41.452 C 330.024 42.166,329.837 42.925,329.835 43.139 C 329.834 43.352,329.653 44.065,329.433 44.722 C 329.213 45.379,328.989 46.450,328.934 47.102 C 328.797 48.744,328.653 49.028,325.656 53.567 C 322.395 58.506,322.543 58.313,321.138 59.467 C 320.502 59.989,319.436 60.867,318.768 61.417 C 318.099 61.967,317.245 62.731,316.869 63.116 C 315.993 64.012,315.461 64.279,314.147 64.487 C 313.434 64.600,312.479 64.957,311.250 65.572 C 309.148 66.623,307.073 67.385,305.309 67.753 C 304.635 67.894,303.746 68.138,303.333 68.296 C 302.526 68.605,277.354 68.752,276.286 68.454 C 275.097 68.122,275.168 69.358,275.168 49.000 C 275.168 28.642,275.097 29.878,276.286 29.546 C 276.887 29.379,285.608 29.377,286.206 29.544 C 287.285 29.846,287.241 29.345,287.333 42.409 C 287.398 51.598,287.464 54.334,287.630 54.623 C 288.142 55.519,288.084 55.515,297.975 55.464 L 307.112 55.417 308.764 54.583 C 310.246 53.836,310.517 53.625,311.387 52.542 C 312.088 51.669,312.679 51.143,313.519 50.644 C 314.915 49.814,315.516 49.125,316.001 47.794 C 316.201 47.244,316.583 46.451,316.849 46.032 C 317.308 45.309,317.851 43.740,318.678 40.750 C 319.476 37.863,319.475 37.260,318.673 34.417 C 317.717 31.030,317.308 29.857,316.816 29.083 C 316.524 28.625,316.133 27.800,315.947 27.251 C 315.522 25.996,314.419 24.788,312.583 23.568 C 311.850 23.080,310.950 22.424,310.583 22.110 C 310.217 21.796,309.129 21.136,308.167 20.644 L 306.417 19.750 291.409 19.667 C 277.312 19.588,276.374 19.565,275.943 19.283 C 275.189 18.788,275.150 18.455,275.202 12.823 C 275.255 6.951,275.242 7.020,276.403 6.677 C 277.495 6.354,300.992 6.547,301.833 6.885 M395.023 6.810 C 395.887 7.255,395.917 7.465,395.917 13.083 C 395.917 18.702,395.887 18.912,395.023 19.357 C 394.394 19.681,344.378 19.782,343.395 19.460 C 342.216 19.076,342.167 18.822,342.167 13.083 C 342.167 7.410,342.225 7.097,343.333 6.717 C 344.244 6.404,394.412 6.495,395.023 6.810 M202.414 19.076 C 202.812 20.477,203.372 21.511,204.385 22.711 C 204.867 23.282,205.477 24.035,205.740 24.383 C 206.398 25.254,208.043 26.180,210.417 27.017 L 212.417 27.721 215.806 27.795 C 221.729 27.923,221.822 27.880,222.020 24.926 C 222.250 21.497,223.138 21.313,225.164 24.276 C 225.656 24.995,227.020 26.574,228.196 27.785 C 229.371 28.996,230.333 30.062,230.333 30.154 C 230.333 30.245,230.664 30.726,231.068 31.223 C 232.862 33.424,232.730 34.272,230.347 35.881 C 229.652 36.349,228.408 37.384,227.583 38.179 C 223.524 42.094,222.015 42.032,222.004 37.950 C 221.997 35.387,221.908 35.321,218.250 35.154 C 216.242 35.062,215.322 34.946,214.527 34.683 C 213.946 34.491,213.136 34.333,212.728 34.333 C 212.312 34.333,211.067 34.034,209.897 33.654 C 205.843 32.335,203.736 30.424,201.711 26.228 L 200.917 24.583 200.932 21.470 C 200.952 17.212,201.592 16.179,202.414 19.076 M388.750 29.495 C 390.162 29.821,390.167 29.841,390.167 35.507 L 390.167 40.495 389.680 41.039 L 389.194 41.583 371.972 41.667 C 353.136 41.758,354.180 41.695,353.736 42.758 C 353.348 43.687,353.396 53.708,353.792 54.498 C 354.321 55.553,353.123 55.495,374.500 55.498 C 387.202 55.501,394.297 55.561,394.691 55.671 C 395.882 56.001,395.910 56.135,395.968 61.667 C 396.025 67.064,395.954 67.610,395.113 68.234 L 394.642 68.583 369.029 68.583 C 348.019 68.583,343.347 68.543,343.028 68.362 C 342.141 67.856,342.167 68.432,342.167 49.000 C 342.167 28.494,342.069 29.849,343.569 29.490 C 344.334 29.308,387.957 29.312,388.750 29.495 M246.933 34.350 C 247.194 34.639,247.267 35.057,247.347 36.726 C 247.496 39.830,247.693 40.000,251.144 40.000 C 252.843 40.000,253.531 40.072,254.402 40.341 C 255.009 40.529,256.086 40.750,256.795 40.833 C 260.343 41.250,264.058 43.242,265.831 45.680 C 268.183 48.912,268.801 50.973,268.546 54.730 C 268.325 57.983,267.736 58.617,267.088 56.299 C 266.552 54.385,265.473 52.705,263.273 50.360 C 262.626 49.670,260.938 48.802,258.750 48.032 L 257.083 47.446 253.250 47.377 C 247.760 47.279,247.478 47.419,247.372 50.294 C 247.241 53.871,246.272 53.864,243.823 50.270 C 243.322 49.535,242.280 48.360,241.456 47.603 C 240.646 46.859,239.712 45.837,239.379 45.333 C 239.047 44.829,238.413 43.979,237.971 43.444 C 236.598 41.783,236.863 40.777,239.064 39.296 C 239.625 38.919,240.766 37.961,241.600 37.169 C 244.180 34.716,246.265 33.614,246.933 34.350 M28.684 38.211 C 28.995 38.419,29.612 39.137,30.054 39.806 C 30.679 40.752,31.105 41.183,31.971 41.747 C 33.316 42.622,34.146 43.458,35.062 44.859 C 35.557 45.614,36.045 46.105,36.780 46.586 C 39.329 48.254,39.159 47.419,39.162 58.250 C 39.166 69.851,39.932 68.583,32.917 68.583 C 27.855 68.583,27.712 68.560,27.249 67.665 C 26.806 66.808,26.958 38.398,27.407 38.070 C 27.844 37.750,28.022 37.770,28.684 38.211 M232.026 39.125 C 232.298 39.285,232.958 40.054,233.493 40.833 C 234.028 41.612,234.959 42.685,235.563 43.216 C 236.896 44.390,238.667 46.985,238.667 47.765 C 238.667 48.708,238.231 48.905,235.934 49.000 C 232.842 49.127,232.669 49.340,232.668 53.024 C 232.667 54.677,232.593 55.371,232.324 56.240 C 232.136 56.849,231.917 57.888,231.838 58.549 C 231.236 63.539,228.666 66.977,223.753 69.362 L 221.922 70.250 218.999 70.219 C 215.930 70.186,215.167 70.049,215.167 69.532 C 215.167 69.179,215.593 68.930,216.662 68.657 C 218.202 68.265,219.952 67.118,222.301 64.961 C 224.171 63.245,225.202 59.778,225.289 54.917 C 225.392 49.187,225.380 49.164,222.234 48.992 C 219.025 48.817,218.948 47.833,221.983 45.791 C 222.680 45.322,224.112 44.100,225.167 43.075 C 226.221 42.050,227.412 41.006,227.814 40.756 C 228.215 40.506,228.949 39.971,229.445 39.567 C 230.460 38.741,231.169 38.619,232.026 39.125 " stroke="none" fill="#1c242c" fill-rule="evenodd"></path></g></svg>